<?xml version="1.0" encoding="UTF-8" ?>
<!DOCTYPE svg PUBLIC "-//W3C//DTD SVG 1.1//EN" "http://www.w3.org/Graphics/SVG/1.1/DTD/svg11.dtd">
<svg width="128pt" height="1104pt" viewBox="0 0 128 1104" version="1.1" xmlns="http://www.w3.org/2000/svg">
<g id="#e15d4cff">
<path fill="#e15d4c" opacity="1.00" d=" M 13.27 0.00 L 114.73 0.00 C 121.38 1.20 126.81 6.62 128.00 13.28 L 128.00 38.41 C 126.75 38.24 125.50 38.08 124.25 37.91 C 123.92 30.60 124.35 23.27 123.93 15.96 C 123.75 11.67 121.22 7.57 117.42 5.57 C 114.26 3.80 110.51 4.05 107.01 3.96 C 76.98 4.03 46.94 3.96 16.90 4.03 C 10.70 3.85 4.73 8.74 4.16 15.00 C 3.54 22.64 4.14 30.31 3.78 37.96 C 2.52 38.04 1.26 38.13 -0.00 38.21 L 0.00 13.26 C 1.21 6.62 6.61 1.19 13.27 0.00 Z" />
</g>
<g id="#dd4b39ff">
<path fill="#dd4b39" opacity="1.00" d=" M 4.16 15.00 C 4.73 8.74 10.70 3.85 16.90 4.03 C 46.94 3.96 76.98 4.03 107.01 3.96 C 110.51 4.05 114.26 3.80 117.42 5.57 C 121.22 7.57 123.75 11.67 123.93 15.96 C 124.35 23.27 123.92 30.60 124.25 37.91 C 125.50 38.08 126.75 38.24 128.00 38.41 L 128.00 114.74 C 126.70 121.83 120.44 127.95 113.06 127.98 C 88.68 128.18 64.28 127.65 39.91 128.32 C 37.12 128.17 34.33 128.09 31.54 128.04 C 26.97 127.99 22.40 127.86 17.84 128.21 C 9.57 129.29 1.38 122.89 0.00 114.73 L 0.00 38.21 C 1.26 38.13 2.52 38.04 3.78 37.96 C 4.14 30.31 3.54 22.64 4.16 15.00 M 54.00 42.00 C 47.42 43.39 41.95 50.36 44.17 57.17 C 45.57 62.63 51.53 65.29 56.80 64.84 C 56.20 67.28 57.00 69.57 58.04 71.74 C 52.77 72.33 46.87 72.95 42.91 76.89 C 39.68 79.81 39.24 85.37 42.27 88.59 C 44.99 91.50 49.06 92.72 52.94 92.95 C 58.66 93.36 64.88 92.20 69.17 88.15 C 72.71 85.07 73.90 79.51 71.59 75.37 C 69.85 72.19 66.48 70.51 63.97 68.04 C 62.89 67.14 62.58 65.48 63.45 64.33 C 65.72 61.17 69.85 59.16 70.35 54.92 C 71.33 50.70 68.92 46.75 66.03 43.90 C 68.99 44.17 71.65 43.03 73.98 41.31 C 67.33 41.48 60.55 40.55 54.00 42.00 M 83.74 57.53 C 83.75 60.27 83.75 63.01 83.75 65.74 C 81.01 65.75 78.26 65.75 75.52 65.74 C 75.51 66.43 75.50 67.81 75.50 68.50 C 78.24 68.50 80.98 68.50 83.73 68.49 C 83.74 71.24 83.75 73.98 83.74 76.73 C 84.44 76.73 85.82 76.73 86.51 76.73 C 86.50 73.99 86.50 71.25 86.50 68.51 C 89.24 68.50 91.98 68.50 94.73 68.51 C 94.73 67.82 94.73 66.44 94.73 65.74 C 91.98 65.75 89.23 65.74 86.49 65.73 C 86.50 62.99 86.50 60.25 86.51 57.51 C 85.81 57.51 84.43 57.52 83.74 57.53 Z" />
<path fill="#dd4b39" opacity="1.00" d=" M 53.21 44.31 C 56.31 42.76 60.12 44.33 61.80 47.21 C 64.19 50.93 65.77 56.19 63.34 60.24 C 60.60 64.23 54.15 63.13 52.08 59.03 C 49.38 54.72 48.06 47.32 53.21 44.31 Z" />
<path fill="#dd4b39" opacity="1.00" d=" M 53.31 74.47 C 56.17 74.03 59.65 72.76 62.18 74.78 C 64.92 76.81 68.39 79.19 68.28 83.02 C 68.33 86.11 65.91 88.66 63.08 89.54 C 58.55 90.91 53.27 90.47 49.31 87.76 C 46.56 85.89 45.40 81.97 46.85 78.95 C 48.11 76.49 50.72 75.09 53.31 74.47 Z" />
</g>
<g id="#ffffffff">
<path fill="#ffffff" opacity="1.00" d=" M 54.00 42.00 C 60.55 40.55 67.33 41.48 73.98 41.31 C 71.65 43.03 68.99 44.17 66.03 43.90 C 68.92 46.75 71.33 50.70 70.35 54.92 C 69.85 59.16 65.72 61.17 63.45 64.33 C 62.58 65.48 62.89 67.14 63.97 68.04 C 66.48 70.51 69.85 72.19 71.59 75.37 C 73.90 79.51 72.71 85.07 69.17 88.15 C 64.88 92.20 58.66 93.36 52.94 92.95 C 49.06 92.72 44.99 91.50 42.27 88.59 C 39.24 85.37 39.68 79.81 42.91 76.89 C 46.87 72.95 52.77 72.33 58.04 71.74 C 57.00 69.57 56.20 67.28 56.80 64.84 C 51.53 65.29 45.57 62.63 44.17 57.17 C 41.95 50.36 47.42 43.39 54.00 42.00 M 53.21 44.31 C 48.06 47.32 49.38 54.72 52.08 59.03 C 54.15 63.13 60.60 64.23 63.34 60.24 C 65.77 56.19 64.19 50.93 61.80 47.21 C 60.12 44.33 56.31 42.76 53.21 44.31 M 53.31 74.47 C 50.72 75.09 48.11 76.49 46.85 78.95 C 45.40 81.97 46.56 85.89 49.31 87.76 C 53.27 90.47 58.55 90.91 63.08 89.54 C 65.91 88.66 68.33 86.11 68.28 83.02 C 68.39 79.19 64.92 76.81 62.18 74.78 C 59.65 72.76 56.17 74.03 53.31 74.47 Z" />
<path fill="#ffffff" opacity="1.00" d=" M 0.00 128.17 C 5.31 128.45 11.08 126.93 15.97 129.64 C 15.11 130.21 13.40 131.36 12.55 131.93 C 16.52 135.73 20.29 139.73 24.03 143.76 C 27.86 139.80 31.69 135.85 35.57 131.95 C 34.21 130.67 32.85 129.38 31.54 128.04 C 34.33 128.09 37.12 128.17 39.91 128.32 C 42.59 128.69 45.32 128.59 48.00 128.27 C 47.91 133.67 47.97 139.06 47.97 144.46 C 46.72 143.24 45.48 142.00 44.26 140.76 C 40.60 144.85 36.30 148.24 32.34 152.02 C 36.34 155.88 40.44 159.64 44.31 163.65 C 45.52 162.43 46.73 161.22 47.96 160.03 C 47.98 165.33 47.93 170.63 47.98 175.93 C 42.66 175.96 37.34 175.97 32.02 175.95 C 33.23 174.72 34.44 173.51 35.67 172.30 C 31.64 168.46 27.92 164.32 24.03 160.34 C 20.26 164.34 16.78 168.63 12.70 172.34 C 14.00 173.52 15.29 174.71 16.56 175.93 C 11.04 175.97 5.52 175.99 0.00 175.89 L 0.00 174.37 C 1.77 173.69 2.55 168.05 0.00 169.87 L 0.00 167.03 C 1.86 165.82 2.00 163.15 0.00 162.00 L 0.00 159.56 C 1.35 160.86 2.67 162.19 3.97 163.54 C 7.89 159.68 11.81 155.82 15.78 152.02 C 11.82 148.34 7.88 144.62 4.09 140.75 C 2.73 142.18 1.35 143.59 0.00 145.03 L 0.00 142.16 C 1.95 140.96 1.89 138.30 0.00 137.08 L 0.00 135.93 C 1.94 134.36 2.12 131.57 0.00 130.07 L 0.00 128.17 Z" />
<path fill="#ffffff" opacity="1.00" d=" M 0.00 184.22 C 2.99 181.72 5.62 178.84 8.35 176.07 C 13.71 181.16 18.90 186.42 24.04 191.73 C 29.23 186.46 34.43 181.21 39.74 176.06 C 42.50 178.87 45.30 181.64 48.12 184.39 C 42.90 189.63 37.73 194.93 32.38 200.03 C 37.69 205.17 42.84 210.47 48.11 215.66 C 45.34 218.40 42.64 221.21 39.87 223.96 C 39.83 223.96 39.74 223.96 39.69 223.96 C 34.35 218.89 29.23 213.60 24.05 208.38 C 18.91 213.68 13.72 218.95 8.36 224.03 C 5.60 221.26 2.84 218.47 0.01 215.77 L 0.00 216.97 L 0.00 215.75 C 5.21 210.46 10.46 205.22 15.76 200.03 C 10.38 195.03 5.48 189.52 0.00 184.63 L 0.00 184.22 Z" />
<path fill="#ffffff" opacity="1.00" d=" M 65.48 271.46 C 68.53 266.48 75.84 264.89 80.58 268.41 C 83.32 271.08 86.69 268.19 89.58 267.42 C 88.51 269.46 87.18 271.35 85.75 273.15 C 87.49 272.59 89.25 272.05 91.01 271.55 C 89.40 273.66 87.57 275.60 85.59 277.37 C 85.54 286.76 81.74 296.30 74.37 302.32 C 64.46 310.71 49.17 311.16 38.32 304.28 C 43.64 304.37 49.10 303.41 53.46 300.19 C 49.29 299.07 45.57 296.47 44.03 292.29 C 45.00 292.31 46.94 292.34 47.92 292.35 C 43.70 290.22 40.48 286.31 40.29 281.43 C 41.79 281.89 43.29 282.39 44.78 282.89 C 40.67 279.21 39.59 273.23 41.94 268.27 C 47.39 274.73 55.24 278.97 63.68 279.73 C 63.82 276.92 63.75 273.86 65.48 271.46 Z" />
<path fill="#ffffff" opacity="1.00" d=" M 34.20 357.18 C 38.51 361.05 42.30 365.47 46.65 369.30 C 42.50 373.39 38.48 377.62 34.27 381.65 C 34.31 379.75 34.36 377.86 34.39 375.97 C 25.45 376.01 16.15 378.46 9.62 384.87 C 12.70 373.27 23.19 365.45 34.43 362.63 C 34.37 360.81 34.27 358.99 34.20 357.18 Z" />
<path fill="#ffffff" opacity="1.00" d=" M 1.00 367.80 C 6.03 367.79 11.06 367.86 16.09 367.73 C 14.56 369.23 13.05 370.75 11.65 372.38 C 9.51 372.44 7.37 372.44 5.22 372.47 C 5.33 378.76 5.36 385.06 5.21 391.36 C 15.00 391.42 24.80 391.39 34.59 391.37 C 34.53 389.90 34.46 388.44 34.40 386.98 C 36.01 385.37 37.62 383.74 39.26 382.16 C 39.12 386.72 39.18 391.28 39.18 395.84 C 26.46 395.85 13.73 395.84 1.01 395.85 C 0.99 386.50 1.00 377.15 1.00 367.80 Z" />
<path fill="#ffffff" opacity="1.00" d=" M 44.00 439.00 C 52.01 439.06 60.02 438.88 68.03 439.07 C 72.99 439.27 78.79 441.56 80.25 446.77 C 82.14 452.38 79.55 458.84 74.26 461.51 C 77.87 462.43 81.47 464.47 83.05 468.02 C 85.39 473.93 83.94 481.69 78.44 485.39 C 74.06 488.73 68.36 489.23 63.04 489.02 C 56.70 488.98 50.35 489.01 44.00 489.00 C 44.00 472.33 44.00 455.67 44.00 439.00 M 56.58 448.17 C 56.50 451.61 56.47 455.06 56.51 458.50 C 59.31 458.35 62.29 458.96 64.96 457.94 C 68.72 456.53 68.76 450.29 65.02 448.87 C 62.32 447.95 59.39 448.31 56.58 448.17 M 56.50 467.52 C 56.51 471.57 56.52 475.62 56.46 479.68 C 60.24 479.69 64.24 480.20 67.81 478.67 C 71.91 476.85 72.14 469.90 67.82 468.23 C 64.22 466.89 60.25 467.69 56.50 467.52 Z" />
<path fill="#ffffff" opacity="1.00" d=" M 34.17 572.20 C 53.78 571.79 73.45 572.00 93.08 572.10 C 94.89 572.25 96.23 574.20 95.98 575.98 C 96.02 586.64 96.01 597.32 95.98 607.99 C 96.33 610.18 94.29 612.29 92.09 611.98 C 73.38 612.01 54.67 612.01 35.96 611.98 C 33.77 612.31 31.70 610.24 32.02 608.05 C 31.98 597.35 31.98 586.64 32.02 575.94 C 31.77 574.31 32.82 572.96 34.17 572.20 M 34.12 575.98 C 35.55 577.87 37.63 579.07 39.52 580.45 C 47.70 586.24 55.84 592.10 64.00 597.92 C 73.50 591.06 83.13 584.37 92.56 577.43 C 95.04 576.71 92.68 573.16 91.15 574.79 C 82.01 581.09 73.05 587.67 64.00 594.10 C 54.63 587.51 45.48 580.58 35.93 574.25 C 35.48 574.68 34.57 575.55 34.12 575.98 M 39.37 604.27 C 37.63 605.68 34.93 606.63 34.87 609.26 C 41.01 606.72 45.84 601.81 51.44 598.30 C 52.48 597.90 54.52 595.12 51.86 595.57 C 47.50 598.16 43.59 601.45 39.37 604.27 M 74.86 595.85 C 75.14 598.25 78.01 598.99 79.60 600.46 C 84.19 603.26 88.01 607.48 93.17 609.22 C 93.02 606.64 90.40 605.68 88.66 604.29 C 84.42 601.45 80.48 598.15 76.10 595.54 L 74.86 595.85 Z" />
<path fill="#ffffff" opacity="1.00" d=" M 15.31 656.89 C 16.30 656.84 17.29 656.81 18.28 656.80 C 23.20 662.49 28.81 667.53 34.03 672.94 C 36.63 675.33 38.74 678.38 41.96 680.01 C 39.03 681.61 36.96 684.33 34.56 686.61 C 28.82 692.43 22.95 698.13 17.32 704.07 C 15.22 702.00 13.03 700.02 11.04 697.85 C 11.39 696.74 12.42 696.05 13.15 695.22 C 18.26 690.19 23.24 685.04 28.37 680.04 C 22.37 674.34 16.79 668.22 10.72 662.61 C 12.42 660.88 14.11 659.13 15.94 657.54 L 15.31 656.89 Z" />
<path fill="#ffffff" opacity="1.00" d=" M 9.96 725.00 C 16.88 717.98 23.90 711.05 30.80 704.00 C 32.87 706.19 34.96 708.36 37.25 710.33 C 31.48 716.33 25.58 722.21 19.63 728.04 C 25.58 733.87 31.42 739.83 37.29 745.74 C 35.00 747.74 32.89 749.95 30.70 752.08 C 23.88 744.94 16.79 738.07 9.89 731.01 C 8.78 729.80 7.47 728.81 6.03 728.05 C 7.51 727.26 8.82 726.21 9.96 725.00 Z" />
<path fill="#ffffff" opacity="1.00" d=" M 8.30 751.97 C 16.83 758.01 25.47 763.89 34.06 769.84 C 37.24 771.95 40.20 774.45 43.71 776.03 C 42.08 776.81 40.51 777.73 39.04 778.79 C 28.83 785.96 18.48 792.92 8.32 800.15 C 8.30 784.09 8.33 768.03 8.30 751.97 Z" />
<path fill="#ffffff" opacity="1.00" d=" M 60.27 837.30 C 64.87 832.68 71.90 834.07 77.75 834.23 C 77.75 837.31 77.75 840.40 77.74 843.50 C 74.68 843.62 71.32 842.97 68.53 844.53 C 66.33 847.42 67.54 851.38 67.26 854.75 C 70.61 854.74 73.96 854.74 77.32 854.76 C 76.89 858.16 76.46 861.58 76.02 864.99 C 73.09 864.99 70.16 865.00 67.23 865.03 C 67.28 873.68 67.24 882.34 67.25 890.99 C 63.65 891.02 60.05 891.01 56.45 890.91 C 56.56 882.27 56.48 873.63 56.49 865.00 C 53.66 864.99 50.83 864.99 48.00 865.00 C 48.00 861.58 48.00 858.16 48.00 854.75 C 50.84 854.74 53.67 854.74 56.51 854.73 C 56.60 848.85 55.61 841.79 60.27 837.30 Z" />
<path fill="#ffffff" opacity="1.00" d=" M 56.00 962.00 C 61.33 962.00 66.67 961.99 72.00 962.00 C 72.00 974.00 72.00 986.00 72.00 998.00 C 76.07 997.99 80.15 997.99 84.22 998.00 C 77.50 1006.08 70.83 1014.22 63.99 1022.21 C 57.18 1014.20 50.49 1006.09 43.78 998.00 C 47.86 997.99 51.93 997.99 56.00 998.00 C 56.00 986.00 56.00 974.00 56.00 962.00 Z" />
<path fill="#ffffff" opacity="1.00" d=" M 5.39 1056.05 C 8.04 1056.08 10.69 1056.09 13.34 1056.11 C 15.43 1056.14 17.53 1056.07 19.62 1056.04 C 19.68 1072.03 19.66 1088.01 19.63 1104.00 L 18.75 1104.00 C 14.66 1102.60 10.30 1102.57 6.21 1104.00 L 5.41 1104.00 C 5.35 1088.02 5.38 1072.03 5.39 1056.05 Z" />
<path fill="#ffffff" opacity="1.00" d=" M 28.48 1056.04 C 33.18 1056.16 37.89 1056.15 42.59 1056.04 C 42.65 1072.03 42.63 1088.01 42.60 1104.00 L 41.74 1104.00 C 37.67 1102.55 33.34 1102.62 29.25 1104.00 L 28.48 1104.00 C 28.44 1088.01 28.44 1072.02 28.48 1056.04 Z" />
</g>
<g id="#fffefeff">
<path fill="#fffefe" opacity="1.00" d=" M 83.74 57.53 C 84.43 57.52 85.81 57.51 86.51 57.51 C 86.50 60.25 86.50 62.99 86.49 65.73 C 89.23 65.74 91.98 65.75 94.73 65.74 C 94.73 66.44 94.73 67.82 94.73 68.51 C 91.98 68.50 89.24 68.50 86.50 68.51 C 86.50 71.25 86.50 73.99 86.51 76.73 C 85.82 76.73 84.44 76.73 83.74 76.73 C 83.75 73.98 83.74 71.24 83.73 68.49 C 80.98 68.50 78.24 68.50 75.50 68.50 C 75.50 67.81 75.51 66.43 75.52 65.74 C 78.26 65.75 81.01 65.75 83.75 65.74 C 83.75 63.01 83.75 60.27 83.74 57.53 Z" />
</g>
<g id="#e5e5e5e5">
<path fill="#e5e5e5" opacity="0.90" d=" M 0.00 130.07 C 2.12 131.57 1.94 134.36 0.00 135.93 L 0.00 130.07 Z" />
<path fill="#e5e5e5" opacity="0.90" d=" M 0.00 169.87 C 2.55 168.05 1.77 173.69 0.00 174.37 L 0.00 169.87 Z" />
</g>
<g id="#e4e4e4e4">
<path fill="#e4e4e4" opacity="0.89" d=" M 0.00 137.08 C 1.89 138.30 1.95 140.96 0.00 142.16 L 0.00 137.08 Z" />
<path fill="#e4e4e4" opacity="0.89" d=" M 0.00 162.00 C 2.00 163.15 1.86 165.82 0.00 167.03 L 0.00 162.00 Z" />
</g>
<g id="#00acedff">
<path fill="#00aced" opacity="1.00" d=" M 0.00 237.24 C 1.29 230.15 7.58 224.04 14.95 224.00 C 23.19 223.94 31.44 224.07 39.69 223.96 C 39.74 223.96 39.83 223.96 39.87 223.96 C 64.24 224.06 88.62 223.96 112.99 224.00 C 120.38 224.02 126.72 230.13 128.00 237.24 L 128.00 338.73 C 126.71 345.82 120.44 351.94 113.06 351.99 C 80.37 352.01 47.67 352.01 14.98 351.99 C 7.60 351.94 1.27 345.85 0.00 338.73 L 0.00 237.24 M 65.48 271.46 C 63.75 273.86 63.82 276.92 63.68 279.73 C 55.24 278.97 47.39 274.73 41.94 268.27 C 39.59 273.23 40.67 279.21 44.78 282.89 C 43.29 282.39 41.79 281.89 40.29 281.43 C 40.48 286.31 43.70 290.22 47.92 292.35 C 46.94 292.34 45.00 292.31 44.03 292.29 C 45.57 296.47 49.29 299.07 53.46 300.19 C 49.10 303.41 43.64 304.37 38.32 304.28 C 49.17 311.16 64.46 310.71 74.37 302.32 C 81.74 296.30 85.54 286.76 85.59 277.37 C 87.57 275.60 89.40 273.66 91.01 271.55 C 89.25 272.05 87.49 272.59 85.75 273.15 C 87.18 271.35 88.51 269.46 89.58 267.42 C 86.69 268.19 83.32 271.08 80.58 268.41 C 75.84 264.89 68.53 266.48 65.48 271.46 Z" />
</g>
<g id="#456388ff">
<path fill="#456388" opacity="1.00" d=" M 0.00 413.27 C 1.29 406.17 7.57 400.04 14.97 400.02 C 47.65 399.99 80.34 399.99 113.03 400.02 C 120.42 400.04 126.71 406.16 128.00 413.26 L 128.00 444.46 C 126.76 444.26 125.52 444.07 124.29 443.88 C 123.98 434.56 124.38 425.24 123.96 415.93 C 123.83 410.35 119.41 405.23 113.90 404.33 C 109.97 403.72 105.98 403.98 102.02 403.97 C 73.69 404.03 45.35 403.93 17.02 404.01 C 10.41 403.81 4.16 409.27 4.02 415.99 C 3.63 425.32 3.99 434.67 3.74 444.01 C 2.49 444.06 1.25 444.12 -0.00 444.19 L 0.00 413.27 Z" />
</g>
<g id="#325078ff">
<path fill="#325078" opacity="1.00" d=" M 4.02 415.99 C 4.16 409.27 10.41 403.81 17.02 404.01 C 45.35 403.93 73.69 404.03 102.02 403.97 C 105.98 403.98 109.97 403.72 113.90 404.33 C 119.41 405.23 123.83 410.35 123.96 415.93 C 124.38 425.24 123.98 434.56 124.29 443.88 C 125.52 444.07 126.76 444.26 128.00 444.46 L 128.00 514.74 C 126.78 521.37 121.42 526.77 114.79 528.00 C 80.92 528.02 47.06 527.99 13.20 528.01 C 6.60 526.73 1.19 521.40 0.00 514.75 L 0.00 444.19 C 1.25 444.12 2.49 444.06 3.74 444.01 C 3.99 434.67 3.63 425.32 4.02 415.99 M 44.00 439.00 C 44.00 455.67 44.00 472.33 44.00 489.00 C 50.35 489.01 56.70 488.98 63.04 489.02 C 68.36 489.23 74.06 488.73 78.44 485.39 C 83.94 481.69 85.39 473.93 83.05 468.02 C 81.47 464.47 77.87 462.43 74.26 461.51 C 79.55 458.84 82.14 452.38 80.25 446.77 C 78.79 441.56 72.99 439.27 68.03 439.07 C 60.02 438.88 52.01 439.06 44.00 439.00 Z" />
<path fill="#325078" opacity="1.00" d=" M 56.58 448.17 C 59.39 448.31 62.32 447.95 65.02 448.87 C 68.76 450.29 68.72 456.53 64.96 457.94 C 62.29 458.96 59.31 458.35 56.51 458.50 C 56.47 455.06 56.50 451.61 56.58 448.17 Z" />
<path fill="#325078" opacity="1.00" d=" M 56.50 467.52 C 60.25 467.69 64.22 466.89 67.82 468.23 C 72.14 469.90 71.91 476.85 67.81 478.67 C 64.24 480.20 60.24 479.69 56.46 479.68 C 56.52 475.62 56.51 471.57 56.50 467.52 Z" />
</g>
<g id="#424242ff">
<path fill="#424242" opacity="1.00" d=" M 13.20 528.01 C 47.06 527.99 80.92 528.02 114.79 528.00 C 121.41 529.25 126.82 534.63 128.00 541.28 L 128.00 557.92 C 126.69 557.96 125.38 558.00 124.07 558.06 C 123.74 550.80 125.93 542.26 120.81 536.20 C 117.47 532.13 111.86 531.77 106.99 531.90 C 77.33 531.98 47.66 532.00 18.00 531.93 C 12.25 531.58 6.34 534.94 4.66 540.62 C 3.25 546.28 3.96 552.19 3.94 557.96 C 2.63 557.97 1.31 557.98 -0.00 558.00 L 0.00 541.25 C 1.22 534.63 6.58 529.23 13.20 528.01 Z" />
<path fill="#424242" opacity="1.00" d=" M 13.22 928.00 C 47.08 928.00 80.93 927.99 114.79 928.00 C 121.41 929.25 126.81 934.62 128.00 941.27 L 128.00 957.93 C 126.69 957.93 125.38 957.94 124.07 957.97 C 123.65 950.55 126.14 941.53 120.29 935.64 C 116.91 931.94 111.59 931.88 106.96 931.93 C 76.95 932.07 46.94 931.81 16.93 932.01 C 10.97 931.78 5.32 936.25 4.26 942.13 C 3.49 947.37 3.91 952.69 3.96 957.97 C 2.64 957.97 1.32 957.98 0.00 957.99 L 0.00 941.27 C 1.21 934.63 6.59 929.23 13.22 928.00 Z" />
</g>
<g id="#2f2f2fff">
<path fill="#2f2f2f" opacity="1.00" d=" M 4.66 540.62 C 6.34 534.94 12.25 531.58 18.00 531.93 C 47.66 532.00 77.33 531.98 106.99 531.90 C 111.86 531.77 117.47 532.13 120.81 536.20 C 125.93 542.26 123.74 550.80 124.07 558.06 C 123.80 571.65 124.03 585.26 124.16 598.85 C 125.44 599.01 126.72 599.17 128.00 599.34 L 128.00 642.75 C 126.68 649.84 120.42 655.97 113.02 655.98 C 80.35 656.04 47.67 655.97 14.99 656.02 C 7.62 655.91 1.29 649.89 0.00 642.76 L 0.00 599.22 C 1.26 599.08 2.52 598.95 3.77 598.82 C 4.07 585.21 4.16 571.58 3.94 557.96 C 3.96 552.19 3.25 546.28 4.66 540.62 M 34.17 572.20 C 32.82 572.96 31.77 574.31 32.02 575.94 C 31.98 586.64 31.98 597.35 32.02 608.05 C 31.70 610.24 33.77 612.31 35.96 611.98 C 54.67 612.01 73.38 612.01 92.09 611.98 C 94.29 612.29 96.33 610.18 95.98 607.99 C 96.01 597.32 96.02 586.64 95.98 575.98 C 96.23 574.20 94.89 572.25 93.08 572.10 C 73.45 572.00 53.78 571.79 34.17 572.20 Z" />
<path fill="#2f2f2f" opacity="1.00" d=" M 34.12 575.98 C 34.57 575.55 35.48 574.68 35.93 574.25 C 45.48 580.58 54.63 587.51 64.00 594.10 C 73.05 587.67 82.01 581.09 91.15 574.79 C 92.68 573.16 95.04 576.71 92.56 577.43 C 83.13 584.37 73.50 591.06 64.00 597.92 C 55.84 592.10 47.70 586.24 39.52 580.45 C 37.63 579.07 35.55 577.87 34.12 575.98 Z" />
<path fill="#2f2f2f" opacity="1.00" d=" M 39.37 604.27 C 43.59 601.45 47.50 598.16 51.86 595.57 C 54.52 595.12 52.48 597.90 51.44 598.30 C 45.84 601.81 41.01 606.72 34.87 609.26 C 34.93 606.63 37.63 605.68 39.37 604.27 Z" />
<path fill="#2f2f2f" opacity="1.00" d=" M 74.86 595.85 L 76.10 595.54 C 80.48 598.15 84.42 601.45 88.66 604.29 C 90.40 605.68 93.02 606.64 93.17 609.22 C 88.01 607.48 84.19 603.26 79.60 600.46 C 78.01 598.99 75.14 598.25 74.86 595.85 Z" />
<path fill="#2f2f2f" opacity="1.00" d=" M 4.26 942.13 C 5.32 936.25 10.97 931.78 16.93 932.01 C 46.94 931.81 76.95 932.07 106.96 931.93 C 111.59 931.88 116.91 931.94 120.29 935.64 C 126.14 941.53 123.65 950.55 124.07 957.97 C 123.78 971.62 124.07 985.27 124.12 998.93 C 125.41 999.05 126.71 999.18 128.00 999.32 L 128.00 1042.75 C 126.69 1049.81 120.47 1055.93 113.10 1055.98 C 89.60 1056.07 66.09 1055.92 42.59 1056.04 C 37.89 1056.15 33.18 1056.16 28.48 1056.04 C 25.53 1055.97 22.57 1055.97 19.62 1056.04 C 17.53 1056.07 15.43 1056.14 13.34 1056.11 C 6.73 1054.72 1.19 1049.50 0.00 1042.75 L 0.00 999.24 C 1.28 999.09 2.57 998.95 3.85 998.83 C 3.99 985.21 4.16 971.59 3.96 957.97 C 3.91 952.69 3.49 947.37 4.26 942.13 M 56.00 962.00 C 56.00 974.00 56.00 986.00 56.00 998.00 C 51.93 997.99 47.86 997.99 43.78 998.00 C 50.49 1006.09 57.18 1014.20 63.99 1022.21 C 70.83 1014.22 77.50 1006.08 84.22 998.00 C 80.15 997.99 76.07 997.99 72.00 998.00 C 72.00 986.00 72.00 974.00 72.00 962.00 C 66.67 961.99 61.33 962.00 56.00 962.00 Z" />
</g>
<g id="#3a3a3aff">
<path fill="#3a3a3a" opacity="1.00" d=" M -0.00 558.00 C 1.31 557.98 2.63 557.97 3.94 557.96 C 4.16 571.58 4.07 585.21 3.77 598.82 C 2.52 598.95 1.26 599.08 0.00 599.22 L 0.00 558.00 Z" />
<path fill="#3a3a3a" opacity="1.00" d=" M 124.07 558.06 C 125.38 558.00 126.69 557.96 128.00 557.92 L 128.00 599.34 C 126.72 599.17 125.44 599.01 124.16 598.85 C 124.03 585.26 123.80 571.65 124.07 558.06 Z" />
<path fill="#3a3a3a" opacity="1.00" d=" M 0.00 957.99 C 1.32 957.98 2.64 957.97 3.96 957.97 C 4.16 971.59 3.99 985.21 3.85 998.83 C 2.57 998.95 1.28 999.09 0.00 999.24 L 0.00 957.99 Z" />
<path fill="#3a3a3a" opacity="1.00" d=" M 124.07 957.97 C 125.38 957.94 126.69 957.93 128.00 957.93 L 128.00 999.32 C 126.71 999.18 125.41 999.05 124.12 998.93 C 124.07 985.27 123.78 971.62 124.07 957.97 Z" />
</g>
<g id="#4e6ba5ff">
<path fill="#4e6ba5" opacity="1.00" d=" M 0.00 813.29 C 1.27 806.19 7.54 800.06 14.92 800.02 C 47.63 799.98 80.34 799.99 113.05 800.02 C 120.43 800.06 126.73 806.18 128.00 813.29 L 128.00 838.47 C 126.74 838.28 125.49 838.11 124.24 837.95 C 123.82 830.28 124.50 822.58 123.83 814.93 C 123.25 808.65 117.24 803.78 111.02 804.03 C 80.01 803.92 48.99 804.07 17.98 803.97 C 11.78 803.51 5.33 807.71 4.28 814.03 C 3.34 822.13 4.46 830.32 3.47 838.43 C 2.60 838.34 0.87 838.15 0.00 838.06 L 0.00 813.29 Z" />
</g>
<g id="#3b5998ff">
<path fill="#3b5998" opacity="1.00" d=" M 4.28 814.03 C 5.33 807.71 11.78 803.51 17.98 803.97 C 48.99 804.07 80.01 803.92 111.02 804.03 C 117.24 803.78 123.25 808.65 123.83 814.93 C 124.50 822.58 123.82 830.28 124.24 837.95 C 125.49 838.11 126.74 838.28 128.00 838.47 L 128.00 914.77 C 126.77 921.38 121.41 926.77 114.79 928.00 C 80.93 927.99 47.08 928.00 13.22 928.00 C 6.60 926.75 1.18 921.39 0.00 914.74 L 0.00 838.06 C 0.87 838.15 2.60 838.34 3.47 838.43 C 4.46 830.32 3.34 822.13 4.28 814.03 M 60.27 837.30 C 55.61 841.79 56.60 848.85 56.51 854.73 C 53.67 854.74 50.84 854.74 48.00 854.75 C 48.00 858.16 48.00 861.58 48.00 865.00 C 50.83 864.99 53.66 864.99 56.49 865.00 C 56.48 873.63 56.56 882.27 56.45 890.91 C 60.05 891.01 63.65 891.02 67.25 890.99 C 67.24 882.34 67.28 873.68 67.23 865.03 C 70.16 865.00 73.09 864.99 76.02 864.99 C 76.46 861.58 76.89 858.16 77.32 854.76 C 73.96 854.74 70.61 854.74 67.26 854.75 C 67.54 851.38 66.33 847.42 68.53 844.53 C 71.32 842.97 74.68 843.62 77.74 843.50 C 77.75 840.40 77.75 837.31 77.75 834.23 C 71.90 834.07 64.87 832.68 60.27 837.30 Z" />
</g>
<g id="#e9e9e9e9">
<path fill="#e9e9e9" opacity="0.91" d=" M 6.21 1104.00 C 10.30 1102.57 14.66 1102.60 18.75 1104.00 L 6.21 1104.00 Z" />
<path fill="#e9e9e9" opacity="0.91" d=" M 29.25 1104.00 C 33.34 1102.62 37.67 1102.55 41.74 1104.00 L 29.25 1104.00 Z" />
</g>
</svg>
