<svg width="128px" height="128px" viewBox="0 0 128 128" version="1.1" xmlns="http://www.w3.org/2000/svg"><rect x="20" y="20" width="80" height="80" fill="#FFF"></rect><path fill-rule="evenodd" fill="#2F2F2F" d="M13.22,-7.57918034e-14 C47.08,-7.57918034e-14 80.93,-0.01 114.79,-7.57918034e-14 C121.41,1.25 126.81,6.62 128,13.27 L128,29.93 C126.69,29.93 125.38,29.94 124.07,29.97 C123.65,22.55 126.14,13.53 120.29,7.64 C116.91,3.94 111.59,3.88 106.96,3.93 C76.95,4.07 46.94,3.81 16.93,4.01 C10.97,3.78 5.32,8.25 4.26,14.13 C3.49,19.37 3.91,24.69 3.96,29.97 C2.64,29.97 1.32,29.98 0,29.99 L0,13.27 C1.21,6.63 6.59,1.23 13.22,-7.57918034e-14 Z M4.26,14.13 C5.32,8.25 10.97,3.78 16.93,4.01 C46.94,3.81 76.95,4.07 106.96,3.93 C111.59,3.88 116.91,3.94 120.29,7.64 C126.14,13.53 123.65,22.55 124.07,29.97 C123.78,43.62 124.07,57.27 124.12,70.93 C125.41,71.05 126.71,71.18 128,71.32 L128,114.75 C126.69,121.81 120.47,127.93 113.1,127.98 C89.6,128.07 66.09,127.92 42.59,128.04 C37.89,128.15 33.18,128.16 28.48,128.04 C25.53,127.97 22.57,127.97 19.62,128.04 C17.53,128.07 15.43,128.14 13.34,128.11 C6.73,126.72 1.19,121.5 0,114.75 L0,71.24 C1.28,71.09 2.57,70.95 3.85,70.83 C3.99,57.21 4.16,43.59 3.96,29.97 C3.91,24.69 3.49,19.37 4.26,14.13 Z M56,34 L56,70 C51.93,69.99 47.86,69.99 43.78,70 C50.49,78.09 57.18,86.2 63.99,94.21 C70.83,86.22 77.5,78.08 84.22,70 C80.15,69.99 76.07,69.99 72,70 L72,34 C66.67,33.99 61.33,34 56,34 L56,34 Z M0,29.99 C1.32,29.98 2.64,29.97 3.96,29.97 C4.16,43.59 3.99,57.21 3.85,70.83 C2.57,70.95 1.28,71.09 0,71.24 L0,29.99 L0,29.99 Z M124.07,29.97 C125.38,29.94 126.69,29.93 128,29.93 L128,71.32 C126.71,71.18 125.41,71.05 124.12,70.93 C124.07,57.27 123.78,43.62 124.07,29.97 L124.07,29.97 Z"></path></svg>