<?xml version="1.0" encoding="UTF-8" standalone="no"?>
<svg width="42px" height="42px" viewBox="0 0 42 42" version="1.1" xmlns="http://www.w3.org/2000/svg" xmlns:xlink="http://www.w3.org/1999/xlink" xmlns:sketch="http://www.bohemiancoding.com/sketch/ns">
    <!-- Generator: Sketch 3.0.4 (8054) - http://www.bohemiancoding.com/sketch -->
    <title>exit_fullscreen</title>
    <desc>Created with Sketch.</desc>
    <defs></defs>
    <g id="Page-1" stroke="none" stroke-width="1" fill="none" fill-rule="evenodd" sketch:type="MSPage">
        <path d="M33.1213203,28.8786797 L41.1525433,36.9099026 L36.9099026,41.1525433 L28.8786797,33.1213203 L25,37 L25,24 L38,24 L33.1213203,28.8786797 Z M13.6213203,32.6213203 L5.09009742,41.1525433 L0.847456736,36.9099026 L9.37867966,28.3786797 L5,24 L18,24 L18,37 L13.6213203,32.6213203 L13.6213203,32.6213203 Z M29.3786797,8.37867966 L36.9099026,0.847456736 L41.1525433,5.09009742 L33.6213203,12.6213203 L38,17 L25,17 L25,4 L29.3786797,8.37867966 L29.3786797,8.37867966 Z M8.87867966,13.1213203 L0.847456736,5.09009742 L5.09009742,0.847456736 L13.1213203,8.87867966 L18,4 L18,17 L5,17 L8.87867966,13.1213203 L8.87867966,13.1213203 Z" id="exit_fullscreen" fill-opacity="0.5" fill="#FFFFFF" sketch:type="MSShapeGroup"></path>
    </g>
</svg>