<svg width="128px" height="128px" viewBox="0 0 128 128" version="1.1" xmlns="http://www.w3.org/2000/svg"><rect x="20" y="20" width="80" height="80" fill="#FFF"></rect><path fill="#4E6BA5" fill-rule="evenodd" d="M0,13.29 C1.27,6.19 7.54,0.06 14.92,0.02 C47.63,-0.02 80.34,-0.01 113.05,0.02 C120.43,0.06 126.73,6.18 128,13.29 L128,38.47 C126.74,38.28 125.49,38.11 124.24,37.95 C123.82,30.28 124.5,22.58 123.83,14.93 C123.25,8.65 117.24,3.78 111.02,4.03 C80.01,3.92 48.99,4.07 17.98,3.97 C11.78,3.51 5.33,7.71 4.28,14.03 C3.34,22.13 4.46,30.32 3.47,38.43 C2.6,38.34 0.87,38.15 0,38.06 L0,13.29 Z M4.28,14.03 C5.33,7.71 11.78,3.51 17.98,3.97 C48.99,4.07 80.01,3.92 111.02,4.03 C117.24,3.78 123.25,8.65 123.83,14.93 C124.5,22.58 123.82,30.28 124.24,37.95 C125.49,38.11 126.74,38.28 128,38.47 L128,114.77 C126.77,121.38 121.41,126.77 114.79,128 C80.93,127.99 47.08,128 13.22,128 C6.6,126.75 1.18,121.39 0,114.74 L0,38.06 C0.87,38.15 2.6,38.34 3.47,38.43 C4.46,30.32 3.34,22.13 4.28,14.03 Z M60.27,37.3 C55.61,41.79 56.6,48.85 56.51,54.73 C53.67,54.74 50.84,54.74 48,54.75 L48,65 C50.83,64.99 53.66,64.99 56.49,65 C56.48,73.63 56.56,82.27 56.45,90.91 C60.05,91.01 63.65,91.02 67.25,90.99 C67.24,82.34 67.28,73.68 67.23,65.03 C70.16,65 73.09,64.99 76.02,64.99 C76.46,61.58 76.89,58.16 77.32,54.76 C73.96,54.74 70.61,54.74 67.26,54.75 C67.54,51.38 66.33,47.42 68.53,44.53 C71.32,42.97 74.68,43.62 77.74,43.5 C77.75,40.4 77.75,37.31 77.75,34.23 C71.9,34.07 64.87,32.68 60.27,37.3 L60.27,37.3 Z"></path></svg>