<svg width="24px" height="24px" viewBox="0 0 44 44" version="1.1" xmlns="http://www.w3.org/2000/svg"><path d="M13.5147186,26.2426407 L4.60517318,35.1521861 L0,30.5470129 L0,30.5470129 L0,44 L13.4529871,44 L8.84781387,39.3948268 L8.84781387,39.3948268 L17.7573593,30.4852814 L13.5147186,26.2426407 Z M26.2426407,30.4852814 L35.1521861,39.3948268 L30.5470129,44 L30.5470129,44 L44,44 L44,30.5470129 L39.3948268,35.1521861 L30.4852814,26.2426407 L26.2426407,30.4852814 Z M30.4852814,17.7573593 L39.3948268,8.84781387 L44,13.4529871 L44,13.4529871 L44,0 L30.5470129,0 L35.1521861,4.60517318 L26.2426407,13.5147186 L30.4852814,17.7573593 Z M17.7573593,13.5147186 L8.84781387,4.60517318 L13.4529871,0 L0,0 L0,13.4529871 L3.55271368e-15,13.4529871 L4.60517318,8.84781387 L13.5147186,17.7573593 L17.7573593,13.5147186 Z"></path></svg>