<?xml version="1.0" encoding="UTF-8" standalone="no"?>
<svg width="44px" height="44px" viewBox="0 0 44 44" version="1.1" xmlns="http://www.w3.org/2000/svg" xmlns:xlink="http://www.w3.org/1999/xlink" xmlns:sketch="http://www.bohemiancoding.com/sketch/ns">
    <!-- Generator: Sketch 3.0.4 (8054) - http://www.bohemiancoding.com/sketch -->
    <title>g+</title>
    <desc>Created with Sketch.</desc>
    <defs></defs>
    <g id="Page-1" stroke="none" stroke-width="1" fill="none" fill-rule="evenodd" sketch:type="MSPage">
        <path d="M0,0 L0,44 L44,44 L44,0 L0,0 Z M16.8839641,11 C13.2182154,11 9.76810769,13.7286875 9.76810769,17.0467727 C9.76810769,20.4377273 12.2668667,23.1065852 15.9962667,23.1065852 C16.2556308,23.1065852 16.5074103,23.0676193 16.7541333,23.0489034 C16.5123179,23.5269261 16.339359,24.0480568 16.339359,24.6070795 C16.339359,25.549625 16.8304256,26.3050114 17.4523641,26.9289261 C16.9825641,26.9289261 16.5291231,26.9385909 16.0343385,26.9385909 C11.4944256,26.9385909 8,29.9191761 8,33.0122102 C8,36.0587614 11.8312718,37.9633352 16.3710359,37.9633352 C21.5476103,37.9633352 24.4061179,34.9330455 24.4061179,31.8864943 C24.4061179,29.4439148 23.707441,27.980392 21.5476103,26.4044205 C20.8083333,25.8650341 19.3950667,24.5523125 19.3950667,23.7809716 C19.3950667,22.877392 19.645359,22.4314318 20.964041,21.3684602 C22.3169282,20.2783352 23.2740769,18.6801193 23.2740769,16.8978125 C23.2740769,14.7763182 22.3572308,12.919608 20.6379026,11.9597273 L23.2305026,11.9597273 L25.0604769,11 L16.8839641,11 Z M17.1793179,22.1786136 C15.0727282,22.1137216 13.0709846,19.7478466 12.7075179,16.8947443 C12.3436051,14.0410284 13.7561282,11.8569432 15.8622718,11.9218352 C17.9684154,11.9873409 19.9710513,14.2766648 20.3345179,17.1300739 C20.6927795,19.9434432 19.3242769,22.1799943 17.2675077,22.1799943 C17.2382103,22.1799943 17.2089128,22.1795341 17.1793179,22.1786136 Z M10.9498205,32.1044886 C10.9498205,29.6918239 13.7611846,27.6836989 16.8994308,27.7188295 C17.6317179,27.7269602 18.3141846,27.8483068 18.9337436,28.0554091 C20.6373077,29.2771591 21.8594718,29.9679602 22.2042,31.3601477 C22.269041,31.6425739 22.3044359,31.9332841 22.3044359,32.2299773 C22.3044359,34.691733 20.7663949,36.6150227 16.3542308,36.6150227 C13.2162821,36.6150227 10.9498205,34.5660909 10.9498205,32.1044886 Z M30.0953231,11.1455852 L30.0953231,15.9445284 L25.4432769,15.9445284 L25.4432769,17.863983 L30.0953231,17.863983 L30.0953231,23.1429432 L32.4214205,23.1429432 L32.4214205,17.863983 L37.0736154,17.863983 L37.0736154,15.9445284 L32.4214205,15.9445284 L32.4214205,11.1455852 L30.0953231,11.1455852 Z" id="g+" fill-opacity="0.5" fill="#FFFFFF" sketch:type="MSShapeGroup"></path>
    </g>
</svg>