<svg width="128px" height="128px" viewBox="0 0 128 128" version="1.1" xmlns="http://www.w3.org/2000/svg"><g fill="#DD4B39"><rect x="20" y="20" width="80" height="80" fill="#FFF"></rect><path fill-rule="evenodd" d="M4.16,15 C4.73,8.74 10.7,3.85 16.9,4.03 C46.94,3.96 76.98,4.03 107.01,3.96 C110.51,4.05 114.26,3.8 117.42,5.57 C121.22,7.57 123.75,11.67 123.93,15.96 C124.35,23.27 123.92,30.6 124.25,37.91 C125.5,38.08 126.75,38.24 128,38.41 L128,114.74 C126.7,121.83 120.44,127.95 113.06,127.98 C88.68,128.18 64.28,127.65 39.91,128.32 C37.12,128.17 34.33,128.09 31.54,128.04 C26.97,127.99 22.4,127.86 17.84,128.21 C9.57,129.29 1.38,122.89 0,114.73 L0,38.21 C1.26,38.13 2.52,38.04 3.78,37.96 C4.14,30.31 3.54,22.64 4.16,15 L4.16,15 Z M54,42 C47.42,43.39 41.95,50.36 44.17,57.17 C45.57,62.63 51.53,65.29 56.8,64.84 C56.2,67.28 57,69.57 58.04,71.74 C52.77,72.33 46.87,72.95 42.91,76.89 C39.68,79.81 39.24,85.37 42.27,88.59 C44.99,91.5 49.06,92.72 52.94,92.95 C58.66,93.36 64.88,92.2 69.17,88.15 C72.71,85.07 73.9,79.51 71.59,75.37 C69.85,72.19 66.48,70.51 63.97,68.04 C62.89,67.14 62.58,65.48 63.45,64.33 C65.72,61.17 69.85,59.16 70.35,54.92 C71.33,50.7 68.92,46.75 66.03,43.9 C68.99,44.17 71.65,43.03 73.98,41.31 C67.33,41.48 60.55,40.55 54,42 L54,42 Z M83.74,57.53 C83.75,60.27 83.75,63.01 83.75,65.74 C81.01,65.75 78.26,65.75 75.52,65.74 C75.51,66.43 75.5,67.81 75.5,68.5 C78.24,68.5 80.98,68.5 83.73,68.49 C83.74,71.24 83.75,73.98 83.74,76.73 L86.51,76.73 C86.5,73.99 86.5,71.25 86.5,68.51 C89.24,68.5 91.98,68.5 94.73,68.51 L94.73,65.74 C91.98,65.75 89.23,65.74 86.49,65.73 C86.5,62.99 86.5,60.25 86.51,57.51 C85.81,57.51 84.43,57.52 83.74,57.53 L83.74,57.53 Z M13.27,-8.8817842e-16 L114.73,-8.8817842e-16 C121.38,1.2 126.81,6.62 128,13.28 L128,38.41 C126.75,38.24 125.5,38.08 124.25,37.91 C123.92,30.6 124.35,23.27 123.93,15.96 C123.75,11.67 121.22,7.57 117.42,5.57 C114.26,3.8 110.51,4.05 107.01,3.96 C76.98,4.03 46.94,3.96 16.9,4.03 C10.7,3.85 4.73,8.74 4.16,15 C3.54,22.64 4.14,30.31 3.78,37.96 C2.52,38.04 1.26,38.13 0,38.21 L0,13.26 C1.21,6.62 6.61,1.19 13.27,-8.8817842e-16 L13.27,-8.8817842e-16 Z"></path><path d="M53.21,44.31 C56.31,42.76 60.12,44.33 61.8,47.21 C64.19,50.93 65.77,56.19 63.34,60.24 C60.6,64.23 54.15,63.13 52.08,59.03 C49.38,54.72 48.06,47.32 53.21,44.31 L53.21,44.31 Z"></path><path d="M53.31,74.47 C56.17,74.03 59.65,72.76 62.18,74.78 C64.92,76.81 68.39,79.19 68.28,83.02 C68.33,86.11 65.91,88.66 63.08,89.54 C58.55,90.91 53.27,90.47 49.31,87.76 C46.56,85.89 45.4,81.97 46.85,78.95 C48.11,76.49 50.72,75.09 53.31,74.47 L53.31,74.47 Z"></path></g></svg>