<svg width="100px" height="21px" viewBox="0 0 118 25" version="1.1" xmlns="http://www.w3.org/2000/svg">
            <path d="M74.8529858,5.96177419 C74.0900474,5.96177419 73.3925118,5.99951613 72.7797156,6.07383871 C70.2477725,6.38041935 68.2996209,7.78064516 67.1459716,10.1218065 C66.0946919,12.2568387 66.0127962,14.4557419 66.0127962,15.0787742 C66.0127962,15.6986129 66.0946919,17.8856129 67.1488152,20.0157097 C68.3021801,22.346129 70.2483412,23.7527419 72.7771564,24.084 C73.3117536,24.1539677 73.9467299,24.1893871 74.6636019,24.1893871 C76.8563033,24.1893871 79.1735545,23.8563871 79.1963033,23.8529032 L79.4562085,23.8151613 L79.4562085,19.935 C79.4562085,19.935 76.916872,20.1100645 75.6412322,20.1100645 C74.0562085,20.1100645 73.3717536,20.0067097 73.076872,19.9199032 C71.290237,19.395 71.1108057,16.6424516 71.1170616,15.4846452 C71.1181991,15.3461613 71.1181991,14.8116774 71.1170616,14.6743548 C71.1108057,13.4880968 71.2885308,10.6812581 73.0646445,10.241129 C73.5841706,10.1125161 74.502654,10.0445806 75.7205687,10.0445806 C76.9925118,10.0445806 79.4562085,10.2225484 79.4562085,10.2225484 L79.4562085,6.3243871 L79.1985782,6.2846129 C79.1778199,6.28170968 77.0712796,5.96177419 74.8529858,5.96177419"></path>
            <path d="M113,0 L118,0 L118,24 L113,24 L113,0 Z"></path>
            <path d="M32.3146919,12.9849677 L25.4505213,12.9849677 C25.6282464,11.4073548 25.972891,9.74293548 28.8383886,9.74293548 C32.1540284,9.74293548 32.2313744,11.3063226 32.3061611,12.8183226 C32.3090047,12.8743548 32.311564,12.9298065 32.3146919,12.9849677 L32.3146919,12.9849677 Z M28.9999052,5.93593548 L28.7738389,5.93593548 C26.887109,5.93593548 24.2823697,6.33251613 22.5875829,8.22077419 C21.1248341,9.81958065 20.2856872,12.212129 20.2856872,14.786129 L20.2856872,15.443129 C20.2856872,15.8722258 20.3454028,18.1239677 21.5277725,20.3010968 C22.7550711,22.5612581 24.7797156,23.9074839 27.3827488,24.1940323 C27.8303318,24.2436774 28.3123223,24.2686452 28.8150711,24.2686452 C31.9370616,24.2686452 35.0104265,23.3323548 35.1395261,23.2925806 L35.3550711,23.2260968 L35.3550711,19.7700968 C35.3550711,19.7700968 31.3023697,20.2186452 29.9641706,20.2610323 C25.8745024,20.3908065 25.3936493,18.3434516 25.3441706,16.7324516 L36.818673,16.7324516 L36.818673,13.6460323 C36.818673,11.1080323 36.1598104,9.22790323 34.8056872,7.90025806 C33.1757346,6.27648387 30.7490047,5.93593548 28.9999052,5.93593548 L28.9999052,5.93593548 Z"></path>
            <path d="M59.0866351,12.9849677 L52.2224645,12.9849677 C52.4001896,11.4073548 52.7451185,9.74293548 55.6103318,9.74293548 C58.9262559,9.74293548 59.0036019,11.3063226 59.0783886,12.8183226 C59.0812322,12.8743548 59.0837915,12.9298065 59.0866351,12.9849677 L59.0866351,12.9849677 Z M55.7721327,5.93593548 L55.5460664,5.93593548 C53.6593365,5.93593548 51.0545972,6.33251613 49.3598104,8.22077419 C47.8970616,9.81958065 47.0576303,12.212129 47.0576303,14.786129 L47.0576303,15.443129 C47.0576303,15.8722258 47.1176303,18.1239677 48.2997156,20.3010968 C49.5272986,22.5612581 51.5519431,23.9074839 54.1546919,24.1940323 C54.6025592,24.2436774 55.0845498,24.2686452 55.5870142,24.2686452 C58.7090047,24.2686452 61.782654,23.3323548 61.9120379,23.2925806 L62.1270142,23.2260968 L62.1270142,19.7700968 C62.1270142,19.7700968 58.0745972,20.2186452 56.7361137,20.2610323 C52.6467299,20.3908065 52.1658768,18.3434516 52.1161137,16.7324516 L63.5909005,16.7324516 L63.5909005,13.6460323 C63.5909005,11.1080323 62.9320379,9.22790323 61.5781991,7.90025806 C59.9479621,6.27648387 57.5209479,5.93593548 55.7721327,5.93593548 L55.7721327,5.93593548 Z"></path>
            <path d="M105.3091,12.9849677 L98.4443602,12.9849677 C98.6220853,11.4073548 98.9670142,9.74293548 101.832227,9.74293548 C105.148152,9.74293548 105.225782,11.3063226 105.300284,12.8183226 C105.302844,12.8743548 105.305687,12.9298065 105.3091,12.9849677 L105.3091,12.9849677 Z M101.994028,5.93593548 L101.767962,5.93593548 C99.8812322,5.93593548 97.2764929,6.33251613 95.5819905,8.22077419 C94.1189573,9.81958065 93.2798104,12.212129 93.2798104,14.786129 L93.2798104,15.443129 C93.2798104,15.8722258 93.3398104,18.1239677 94.5221801,20.3010968 C95.749763,22.5612581 97.7741232,23.9074839 100.376588,24.1940323 C100.824171,24.2436774 101.306445,24.2686452 101.80891,24.2686452 C104.9309,24.2686452 108.004265,23.3323548 108.133934,23.2925806 L108.349194,23.2260968 L108.349194,19.7700968 C108.349194,19.7700968 104.296493,20.2186452 102.958009,20.2610323 C98.8686256,20.3908065 98.3877725,18.3434516 98.3382938,16.7324516 L109.812796,16.7324516 L109.812796,13.6460323 C109.812796,11.1080323 109.153934,9.22790323 107.800095,7.90025806 C106.169858,6.27648387 103.742844,5.93593548 101.994028,5.93593548 L101.994028,5.93593548 Z"></path>
            <path d="M40,0 L45,0 L45,24 L40,24 L40,0 Z"></path>
            <path d="M88,10 L92,10 L92,6 L88,6 L88,0 L83,0 L83,17 L88,17 L88,10"></path>
            <path d="M11.3775355,15.6980323 C11.8504265,15.8884839 12.2030332,16.182 12.4254028,16.5707419 L12.4706158,16.9999999 L17.4861608,16.9999999 L17.4861611,16.3768065 C17.02891,12.6037742 14.4594313,11.6602258 11.9744076,10.7477419 C11.1403791,10.4417419 9.652891,9.93280645 8.56663507,9.56148387 C7.96464455,9.35535484 7.48890995,9.19248387 7.36521327,9.1466129 C5.92834123,8.61154839 4.75137441,8.05035484 4.90293839,6.59525806 C5.03118483,5.36312903 6.0557346,4.85680645 8.43810427,4.8483871 C10.8463507,4.85390323 15.7114692,5.26180645 15.7603791,5.26616129 L16.0879621,5.29374194 L16.0879621,1.46845161 L15.8599052,1.40893548 C15.8266351,1.40022581 11.2273934,0.531 8.37526066,0.513580645 L8.25753555,0.513290323 C6.18483412,0.513290323 4.46559242,0.870387097 3.14701422,1.57558065 C1.08341232,2.67880645 0.0369668246,4.58883871 0.0369668246,7.2513871 C0.0369668246,10.1795806 1.91061611,12.1302581 6.30227488,13.7746452 C7.47582938,14.2136129 10.6751659,15.4149677 11.3775355,15.6980323 Z"></path>
            <path d="M8.80606635,19.9762258 L8.61810427,19.9762258 C6.12369668,19.9762258 0.760947867,19.4115484 0.707203791,19.4060323 L0.373364929,19.3706129 L0.373364929,23.543129 L0.602559242,23.6017742 C0.640947867,23.6116452 5.11336493,24.5862581 8.38464455,24.5862581 C13.8909953,24.5862581 17.0544339,22.8856266 17.5162349,19.0144653 L12.4760194,19.0972901 C11.9200952,20.2896449 10.3691943,19.9762258 8.80606635,19.9762258 Z"></path>
            <path d="M87.87854,19.0258789 L83.1686822,19.0258789 C83.2082083,22.7939757 85.1161137,24.0032903 87.4544076,24.2076774 C87.624455,24.2224839 87.8138389,24.2297419 88.016872,24.2297419 C89.4537441,24.2297419 91.9190675,23.7662354 91.9190675,23.7662354 L91.9190675,20.1884516 C91.9190675,20.1884516 89.8797156,20.1884516 89.4543128,20.1884516 C87.9909953,20.1884516 87.9391088,20.1000725 87.87854,19.0258789 Z"></path>
</svg>