<svg width="128px" height="128px" viewBox="0 0 128 128" version="1.1" xmlns="http://www.w3.org/2000/svg"><rect x="20" y="20" width="80" height="80" fill="#FFF"></rect><path fill="#00ACED" fill-rule="evenodd" d="M0,13.24 C1.29,6.15 7.58,0.04 14.95,0 C23.19,-0.06 31.44,0.07 39.69,-0.04 L39.87,-0.04 C64.24,0.06 88.62,-0.04 112.99,0 C120.38,0.02 126.72,6.13 128,13.24 L128,114.73 C126.71,121.82 120.44,127.94 113.06,127.99 C80.37,128.01 47.67,128.01 14.98,127.99 C7.6,127.94 1.27,121.85 0,114.73 L0,13.24 L0,13.24 Z M65.48,47.46 C63.75,49.86 63.82,52.92 63.68,55.73 C55.24,54.97 47.39,50.73 41.94,44.27 C39.59,49.23 40.67,55.21 44.78,58.89 C43.29,58.39 41.79,57.89 40.29,57.43 C40.48,62.31 43.7,66.22 47.92,68.35 C46.94,68.34 45,68.31 44.03,68.29 C45.57,72.47 49.29,75.07 53.46,76.19 C49.1,79.41 43.64,80.37 38.32,80.28 C49.17,87.16 64.46,86.71 74.37,78.32 C81.74,72.3 85.54,62.76 85.59,53.37 C87.57,51.6 89.4,49.66 91.01,47.55 C89.25,48.05 87.49,48.59 85.75,49.15 C87.18,47.35 88.51,45.46 89.58,43.42 C86.69,44.19 83.32,47.08 80.58,44.41 C75.84,40.89 68.53,42.48 65.48,47.46 L65.48,47.46 Z"></path></svg>