<?xml version="1.0" encoding="UTF-8" standalone="no"?>
<svg width="44px" height="44px" viewBox="0 0 44 44" version="1.1" xmlns="http://www.w3.org/2000/svg" xmlns:xlink="http://www.w3.org/1999/xlink" xmlns:sketch="http://www.bohemiancoding.com/sketch/ns">
    <!-- Generator: Sketch 3.0.4 (8054) - http://www.bohemiancoding.com/sketch -->
    <title>twitter</title>
    <desc>Created with Sketch.</desc>
    <defs></defs>
    <g id="Page-1" stroke="none" stroke-width="1" fill="none" fill-rule="evenodd" sketch:type="MSPage">
        <path d="M0,0 L0,44 L44,44 L44,0 L0,0 Z M31.0000664,16.6576202 C30.3745859,16.9387644 29.7024219,17.1288077 28.9969219,17.2142548 C29.7169648,16.7767548 30.2700293,16.0839904 30.5304414,15.2584615 C29.8564844,15.6636202 29.1100781,15.9577885 28.315627,16.1162981 C27.6794551,15.4292548 26.7729766,15 25.7698437,15 C23.8436973,15 22.2820547,16.5827067 22.2820547,18.5349663 C22.2820547,18.8120385 22.3129004,19.0818413 22.3723672,19.3406058 C19.4737344,19.1931346 16.9037793,17.7857981 15.1835918,15.6469952 C14.8833691,16.169101 14.7113437,16.776351 14.7113437,17.4242212 C14.7113437,18.6507019 15.3270625,19.7327404 16.2629258,20.3666779 C15.6912012,20.3483029 15.1534102,20.1892885 14.6832207,19.9245 C14.6828887,19.9392404 14.6828887,19.9540481 14.6828887,19.9689567 C14.6828887,21.6817356 15.8851406,23.110476 17.4806172,23.4353029 C17.187998,23.5160721 16.8798398,23.559351 16.5617539,23.559351 C16.337002,23.559351 16.1185254,23.5371394 15.9055273,23.4958798 C16.3493867,24.9002548 17.6374023,25.9224231 19.1636172,25.9508606 C17.9699648,26.8990577 16.4660957,27.4641731 14.8320039,27.4641731 C14.5504746,27.4641731 14.2728633,27.4474471 14,27.4147019 C15.5434805,28.4177548 17.376791,29.0030625 19.3464004,29.0030625 C25.7616094,29.0030625 29.269752,23.6163606 29.269752,18.9448702 C29.269752,18.7916106 29.266332,18.6391587 29.259625,18.4875144 C29.9412188,17.989101 30.5325,17.3665048 31.0000664,16.6576202 Z" id="twitter" fill-opacity="0.5" fill="#FFFFFF" sketch:type="MSShapeGroup"></path>
    </g>
</svg>