<?xml version="1.0" encoding="UTF-8" standalone="no"?>
<svg width="44px" height="44px" viewBox="0 0 44 44" version="1.1" xmlns="http://www.w3.org/2000/svg" xmlns:xlink="http://www.w3.org/1999/xlink" xmlns:sketch="http://www.bohemiancoding.com/sketch/ns">
    <!-- Generator: Sketch 3.0.4 (8054) - http://www.bohemiancoding.com/sketch -->
    <title>vk</title>
    <desc>Created with Sketch.</desc>
    <defs></defs>
    <g id="Page-1" stroke="none" stroke-width="1" fill-rule="evenodd" fill="#000" sketch:type="MSPage">
        <path d="M0,0 L0,44 L44,44 L44,0 L0,0 Z M21.1888703,29.9329002 L22.9222306,29.9329002 C22.9222306,29.9329002 23.4456903,29.8771016 23.713343,29.5986025 C23.9593466,29.3426203 23.9514834,28.8622587 23.9514834,28.8622587 C23.9514834,28.8622587 23.9175801,26.6129338 24.9968711,26.2816976 C26.0612527,25.9552018 27.4277011,28.455571 28.8759464,29.4170843 C29.9711678,30.1444411 30.803434,29.9852423 30.803434,29.9852423 L34.6762801,29.9329002 C34.6762801,29.9329002 36.7021079,29.8120197 35.7414787,28.2715838 C35.6628474,28.1457654 35.1818691,27.1321075 32.8618377,25.049487 C30.4332543,22.8696881 30.7588082,23.222355 33.6839941,19.451852 C35.4654523,17.1556167 36.1775249,15.7538378 35.9550086,15.1534845 C35.7430105,14.5814749 34.4326252,14.7325755 34.4326252,14.7325755 L30.0721631,14.7586478 C30.0721631,14.7586478 29.7486515,14.7160828 29.5090814,14.8547398 C29.2747193,14.9903353 29.1242987,15.3071528 29.1242987,15.3071528 C29.1242987,15.3071528 28.4338752,17.083918 27.513787,18.5952202 C25.5721049,21.783739 24.7955954,21.9525174 24.4782109,21.7542102 C23.7397917,21.2927115 23.9243199,19.9006109 23.9243199,18.9113464 C23.9243199,15.8211911 24.4089746,14.5327869 22.9805403,14.1992793 C22.5066081,14.0886697 22.1574647,14.0154896 20.9452154,14.0035398 C19.389235,13.9882323 18.0726205,14.0081815 17.3269509,14.3614409 C16.830859,14.5963875 16.4481186,15.1198078 16.6813574,15.1499292 C16.9696381,15.1870624 17.6221756,15.3202877 17.9681533,15.7755646 C18.4151262,16.3636719 18.399502,17.6838763 18.399502,17.6838763 C18.399502,17.6838763 18.6563302,21.3214502 17.7998619,21.7731719 C17.2121696,22.0830762 16.4058415,21.4504289 14.6747279,18.5575932 C13.7879304,17.0758198 13.1181348,15.4377116 13.1181348,15.4377116 C13.1181348,15.4377116 12.989159,15.1316588 12.7587796,14.9678184 C12.4793832,14.7693137 12.088984,14.7064045 12.088984,14.7064045 L7.94521742,14.7325755 C7.94521742,14.7325755 7.32331544,14.7493645 7.09477412,15.0109759 C6.89145609,15.2438486 7.07853727,15.7249015 7.07853727,15.7249015 C7.07853727,15.7249015 10.3224352,23.0648351 13.9958437,26.7637381 C17.3644284,30.155502 21.1888703,29.9329002 21.1888703,29.9329002 Z" id="vk" fill-opacity="0.5" sketch:type="MSShapeGroup"></path>
    </g>
</svg>