<?xml version="1.0" encoding="UTF-8" standalone="no"?>
<svg width="128px" height="128px" viewBox="0 0 128 128" version="1.1" xmlns="http://www.w3.org/2000/svg" xmlns:xlink="http://www.w3.org/1999/xlink" xmlns:sketch="http://www.bohemiancoding.com/sketch/ns">
    <!-- Generator: Sketch 3.0.1 (7597) - http://www.bohemiancoding.com/sketch -->
    <title>Slice 1</title>
    <description>Created with Sketch.</description>
    <defs></defs>
    <g id="Page-1" stroke="none" stroke-width="1" fill="none" fill-rule="evenodd" sketch:type="MSPage">
        <g id="VK" sketch:type="MSLayerGroup" fill="#325078">
            <rect x="20" y="20" width="80" height="80" fill="#FFF"></rect>
            <path d="M4.02,15.99 C4.16,9.27 10.41,3.81 17.02,4.01 C45.35,3.93 73.69,4.03 102.02,3.97 C105.98,3.98 109.97,3.72 113.9,4.33 C119.41,5.23 123.83,10.35 123.96,15.93 C124.38,25.24 123.98,34.56 124.29,43.88 C125.52,44.07 126.76,44.26 128,44.46 L128,114.74 C126.78,121.37 121.42,126.77 114.79,128 C80.92,128.02 47.06,127.99 13.2,128.01 C6.6,126.73 1.19,121.4 0,114.75 L0,44.19 C1.25,44.12 2.49,44.06 3.74,44.01 C3.99,34.67 3.63,25.32 4.02,15.99 L4.02,15.99 Z M44,39 L44,89 C50.35,89.01 56.7,88.98 63.04,89.02 C68.36,89.23 74.06,88.73 78.44,85.39 C83.94,81.69 85.39,73.93 83.05,68.02 C81.47,64.47 77.87,62.43 74.26,61.51 C79.55,58.84 82.14,52.38 80.25,46.77 C78.79,41.56 72.99,39.27 68.03,39.07 C60.02,38.88 52.01,39.06 44,39 Z M0,13.27 C1.29,6.17 7.57,0.04 14.97,0.02 C47.65,-0.01 80.34,-0.01 113.03,0.02 C120.42,0.04 126.71,6.16 128,13.26 L128,44.46 C126.76,44.26 125.52,44.07 124.29,43.88 C123.98,34.56 124.38,25.24 123.96,15.93 C123.83,10.35 119.41,5.23 113.9,4.33 C109.97,3.72 105.98,3.98 102.02,3.97 C73.69,4.03 45.35,3.93 17.02,4.01 C10.41,3.81 4.16,9.27 4.02,15.99 C3.63,25.32 3.99,34.67 3.74,44.01 C2.49,44.06 1.25,44.12 0,44.19 L0,13.27 Z" id="Shape" sketch:type="MSShapeGroup"></path>
            <path d="M56.58,48.17 C59.39,48.31 62.32,47.95 65.02,48.87 C68.76,50.29 68.72,56.53 64.96,57.94 C62.29,58.96 59.31,58.35 56.51,58.5 C56.47,55.06 56.5,51.61 56.58,48.17 L56.58,48.17 Z" id="Shape" sketch:type="MSShapeGroup"></path>
            <path d="M56.5,67.52 C60.25,67.69 64.22,66.89 67.82,68.23 C72.14,69.9 71.91,76.85 67.81,78.67 C64.24,80.2 60.24,79.69 56.46,79.68 C56.52,75.62 56.51,71.57 56.5,67.52 L56.5,67.52 Z" id="Shape" sketch:type="MSShapeGroup"></path>
        </g>
    </g>
</svg>